<?xml version="1.0" encoding="utf-8"?>
<!-- Generator: Adobe Illustrator 22.1.0, SVG Export Plug-In . SVG Version: 6.00 Build 0)  -->
<svg version="1.1" id="Layer_1" xmlns="http://www.w3.org/2000/svg" xmlns:xlink="http://www.w3.org/1999/xlink" x="0px" y="0px"
	 viewBox="0 0 32 32" style="enable-background:new 0 0 32 32;" xml:space="preserve">
<title>fitbit</title>
<path d="M17.7,2.4c0,1.3-1.1,2.4-2.4,2.4c-1.3,0-2.4-1.1-2.4-2.4c0-1.3,1.1-2.4,2.4-2.4C16.6,0.1,17.7,1.1,17.7,2.4z M15.3,6.8
	c-1.4,0-2.5,1.1-2.5,2.5c0,1.4,1.1,2.5,2.5,2.5c1.4,0,2.5-1.1,2.5-2.5C17.8,7.8,16.7,6.8,15.3,6.8L15.3,6.8z M15.3,13.5
	c-1.4,0-2.6,1.2-2.6,2.6s1.2,2.6,2.6,2.6c1.4,0,2.6-1.2,2.6-2.6S16.8,13.5,15.3,13.5L15.3,13.5z M15.3,20.3c-1.4,0-2.5,1.1-2.5,2.5
	c0,1.4,1.1,2.5,2.5,2.5c1.4,0,2.5-1.1,2.5-2.5C17.8,21.5,16.7,20.3,15.3,20.3L15.3,20.3z M15.3,27.2c-1.3,0-2.4,1.1-2.4,2.4
	c0,1.3,1.1,2.4,2.4,2.4c1.3,0,2.4-1.1,2.4-2.4C17.7,28.3,16.6,27.2,15.3,27.2z M21.9,6.4c-1.5,0-2.8,1.3-2.8,2.8
	c0,1.5,1.3,2.8,2.8,2.8c1.5,0,2.8-1.3,2.8-2.8C24.8,7.7,23.5,6.4,21.9,6.4z M21.9,13.1c-1.6,0-2.9,1.3-2.9,2.9
	c0,1.6,1.3,2.9,2.9,2.9s2.9-1.3,2.9-2.9C24.9,14.4,23.6,13.1,21.9,13.1z M21.9,19.9c-1.5,0-2.8,1.3-2.8,2.8c0,1.5,1.3,2.8,2.8,2.8
	c1.5,0,2.8-1.3,2.8-2.8C24.8,21.2,23.5,19.9,21.9,19.9z M28.8,12.8c-1.7,0-3.2,1.4-3.2,3.2c0,1.7,1.4,3.2,3.2,3.2
	c1.8,0,3.2-1.4,3.2-3.3C31.9,14.2,30.5,12.8,28.8,12.8L28.8,12.8z M8.6,7.1c-1.2,0-2.2,1-2.2,2.2c0,1.2,1,2.2,2.2,2.2
	c1.2,0,2.2-1,2.2-2.2C10.8,8.1,9.8,7.1,8.6,7.1L8.6,7.1z M8.6,13.8c-1.3,0-2.3,1-2.3,2.3c0,1.3,1,2.3,2.3,2.3c1.3,0,2.3-1,2.3-2.3
	C10.9,14.8,9.9,13.8,8.6,13.8L8.6,13.8z M8.6,20.6c-1.2,0-2.2,1-2.2,2.2c0,1.2,1,2.2,2.2,2.2c1.2,0,2.2-1,2.2-2.2
	C10.8,21.5,9.8,20.6,8.6,20.6L8.6,20.6z M1.9,14.1C0.9,14.1,0,15,0,16.1C0,17.1,0.9,18,1.9,18c1.1,0,1.9-0.9,1.9-1.9
	C3.9,15,3,14.1,1.9,14.1z"/>
</svg>
